<svg width="45" height="45" viewBox="0 0 45 45" fill="none" xmlns="http://www.w3.org/2000/svg">
<path d="M0 0V45H45V0H0ZM43.5 43.4746H1.5V1.52542H43.5V43.4746Z" fill="white"/>
<path d="M18.75 11.4407H36C36.414 11.4407 36.75 11.0997 36.75 10.678C36.75 10.2562 36.414 9.91525 36 9.91525H18.75C18.336 9.91525 18 10.2562 18 10.678C18 11.0997 18.336 11.4407 18.75 11.4407Z" fill="white"/>
<path d="M18.75 23.6441H36C36.414 23.6441 36.75 23.3031 36.75 22.8814C36.75 22.4596 36.414 22.1187 36 22.1187H18.75C18.336 22.1187 18 22.4596 18 22.8814C18 23.3031 18.336 23.6441 18.75 23.6441Z" fill="white"/>
<path d="M18.75 35.8475H36C36.414 35.8475 36.75 35.5065 36.75 35.0847C36.75 34.663 36.414 34.322 36 34.322H18.75C18.336 34.322 18 34.663 18 35.0847C18 35.5065 18.336 35.8475 18.75 35.8475Z" fill="white"/>
<path d="M15 6.86441H7.5V14.4915H15V6.86441ZM13.5 12.9661H9V8.38983H13.5V12.9661Z" fill="white"/>
<path d="M15 19.0678H7.5V26.6949H15V19.0678ZM13.5 25.1695H9V20.5932H13.5V25.1695Z" fill="white"/>
<path d="M15 31.2712H7.5V38.8983H15V31.2712ZM13.5 37.3729H9V32.7966H13.5V37.3729Z" fill="white"/>
</svg>
