<svg width="45" height="45" viewBox="0 0 45 45" fill="none" xmlns="http://www.w3.org/2000/svg">
<path d="M10.5675 6.5918C10.5675 8.77602 8.79319 10.5469 6.60469 10.5469C4.4162 10.5469 2.64188 8.77602 2.64188 6.5918C2.64188 4.40758 4.4162 2.63672 6.60469 2.63672C8.79319 2.63672 10.5675 4.40758 10.5675 6.5918Z" fill="white"/>
<path d="M42.2701 6.5918C42.2701 8.77602 40.4957 10.5469 38.3072 10.5469C36.1187 10.5469 34.3444 8.77602 34.3444 6.5918C34.3444 4.40758 36.1187 2.63672 38.3072 2.63672C40.4957 2.63672 42.2701 4.40758 42.2701 6.5918Z" fill="white"/>
<path d="M26.4188 3.95508C26.4188 6.1393 24.6445 7.91016 22.456 7.91016C20.2675 7.91016 18.4932 6.1393 18.4932 3.95508C18.4932 1.77086 20.2675 0 22.456 0C24.6445 0 26.4188 1.77086 26.4188 3.95508Z" fill="white"/>
<path d="M42.2315 11.8632C41.1311 12.6817 39.7819 13.1836 38.3072 13.1836C36.8325 13.1836 35.4834 12.6817 34.383 11.8632C33.7411 12.34 33.2206 12.9519 32.7851 13.623C32.9368 14.3327 33.0235 15.066 33.0235 15.8203V21.1816H45V17.1387C45 14.9713 43.8497 13.0648 42.2315 11.8632V11.8632Z" fill="white"/>
<path d="M11.8885 15.8203C11.8885 15.066 11.9751 14.3327 12.1268 13.623C11.6913 12.9519 11.1709 12.34 10.529 11.8632C9.42855 12.6817 8.0794 13.1836 6.6047 13.1836C5.12999 13.1836 3.78084 12.6817 2.68041 11.8632C1.06226 13.0648 0 14.9713 0 17.1387V21.1816H11.8885V15.8203Z" fill="white"/>
<path d="M23.7769 45C26.3607 43.9384 28.6376 39.6002 30.0789 34.4531H23.7769V45Z" fill="white"/>
<path d="M21.135 45V34.4531H14.833C16.2744 39.6002 18.5513 43.9384 21.135 45Z" fill="white"/>
<path d="M14.1967 31.8164H21.135V23.8184H13.2414C13.3257 26.4946 13.6604 29.2779 14.1967 31.8164Z" fill="white"/>
<path d="M23.7769 31.8164H30.7153C31.2516 29.2779 31.5863 26.4946 31.6706 23.8184H23.7769V31.8164Z" fill="white"/>
<path d="M0.0670776 23.8184C0.231851 26.6247 0.90608 29.3792 2.01546 31.8164H11.4905C10.9786 29.2868 10.6793 26.52 10.6016 23.8184H0.0670776Z" fill="white"/>
<path d="M3.43994 34.4531C6.42237 39.1972 11.1255 43.0431 16.6789 44.5224C14.7728 42.1504 13.1915 38.4278 12.1206 34.4531H3.43994Z" fill="white"/>
<path d="M28.233 44.5224C33.7865 43.0431 38.4895 39.1972 41.472 34.4531H32.7913C31.7204 38.4278 30.1391 42.1504 28.233 44.5224V44.5224Z" fill="white"/>
<path d="M44.9329 23.8184H34.3104C34.2326 26.52 33.9333 29.2868 33.4215 31.8164H42.8965C44.0058 29.3792 44.7681 26.6247 44.9329 23.8184Z" fill="white"/>
<path d="M14.5303 15.8203V21.1816H30.3816V15.8203C30.3816 12.9556 28.8412 10.4696 26.556 9.08157C25.7566 9.72015 24.8103 10.1757 23.7769 10.3951V15.8203H21.135V10.3951C20.1017 10.1754 19.1553 9.72015 18.3559 9.08157C16.0707 10.4696 14.5303 12.9556 14.5303 15.8203Z" fill="white"/>
</svg>
