<svg width="45" height="45" viewBox="0 0 45 45" fill="none" xmlns="http://www.w3.org/2000/svg">
<path d="M22.5 0C10.0935 0 0 10.0935 0 22.5C0 28.7527 2.63414 34.7748 7.2269 39.0223C7.59824 39.3657 8.1776 39.343 8.521 38.9718C8.86441 38.6003 8.84182 38.0211 8.47033 37.6777C4.25119 33.7757 1.83149 28.2437 1.83149 22.5C1.83149 11.1034 11.1034 1.83149 22.5 1.83149C33.8966 1.83149 43.1685 11.1034 43.1685 22.5C43.1685 33.8966 33.8966 43.1685 22.5 43.1685C21.9944 43.1685 21.5843 43.5786 21.5843 44.0843C21.5843 44.5899 21.9944 45 22.5 45C34.9067 45 45 34.9065 45 22.5C45 10.0935 34.9067 0 22.5 0Z" fill="white"/>
<path d="M12.8487 13.7644H32.1515C32.6571 13.7644 33.0672 13.3543 33.0672 12.8487C33.0672 12.343 32.6571 11.9329 32.1515 11.9329H12.8487C12.343 11.9329 11.9329 12.343 11.9329 12.8487C11.9329 13.3543 12.343 13.7644 12.8487 13.7644Z" fill="white"/>
<path d="M12.8487 23.4157H32.1515C32.6571 23.4157 33.0672 23.0056 33.0672 22.5C33.0672 21.9943 32.6571 21.5842 32.1515 21.5842H12.8487C12.343 21.5842 11.9329 21.9943 11.9329 22.5C11.9329 23.0056 12.343 23.4157 12.8487 23.4157Z" fill="white"/>
<path d="M33.0672 32.1515C33.0672 31.6458 32.6571 31.2357 32.1515 31.2357H12.8487C12.343 31.2357 11.9329 31.6458 11.9329 32.1515C11.9329 32.6571 12.343 33.0672 12.8487 33.0672H32.1515C32.6571 33.0672 33.0672 32.6571 33.0672 32.1515Z" fill="white"/>
</svg>
