<svg width="26" height="48" viewBox="0 0 26 48" fill="none" xmlns="http://www.w3.org/2000/svg">
<path d="M25.1875 23.1724C24.739 23.1724 24.375 23.5423 24.375 24V28.9655C24.375 35.3545 19.2725 40.5517 13 40.5517C6.7275 40.5517 1.625 35.3545 1.625 28.9655V24C1.625 23.5423 1.261 23.1724 0.8125 23.1724C0.364 23.1724 0 23.5423 0 24V28.9655C0 35.9876 5.39825 41.7343 12.1875 42.1647V46.3448H8.125C7.6765 46.3448 7.3125 46.7148 7.3125 47.1724C7.3125 47.6301 7.6765 48 8.125 48H17.875C18.3235 48 18.6875 47.6301 18.6875 47.1724C18.6875 46.7148 18.3235 46.3448 17.875 46.3448H13.8125V42.1647C20.6017 41.7343 26 35.9868 26 28.9655V24C26 23.5423 25.636 23.1724 25.1875 23.1724Z" fill="url(#paint0_linear)"/>
<path d="M13 38.069C17.9278 38.069 21.9375 33.9848 21.9375 28.9655V9.10345C21.9375 4.08414 17.9278 0 13 0C8.07219 0 4.0625 4.08414 4.0625 9.10345V28.9655C4.0625 33.9848 8.07219 38.069 13 38.069ZM5.6875 9.10345C5.6875 4.99614 8.96838 1.65517 13 1.65517C17.0316 1.65517 20.3125 4.99614 20.3125 9.10345V28.9655C20.3125 33.0728 17.0316 36.4138 13 36.4138C8.96838 36.4138 5.6875 33.0728 5.6875 28.9655V9.10345Z" fill="url(#paint1_linear)"/>
<defs>
<linearGradient id="paint0_linear" x1="13" y1="23.1724" x2="13" y2="48" gradientUnits="userSpaceOnUse">
<stop stop-color="#588AB8"/>
<stop offset="1" stop-color="#40D6CD"/>
</linearGradient>
<linearGradient id="paint1_linear" x1="13" y1="0" x2="13" y2="38.069" gradientUnits="userSpaceOnUse">
<stop stop-color="#588AB8"/>
<stop offset="1" stop-color="#40D6CD"/>
</linearGradient>
</defs>
</svg>
