<svg width="45" height="45" viewBox="0 0 45 45" fill="none" xmlns="http://www.w3.org/2000/svg">
<path d="M22.4996 10.8331C16.0664 10.8331 10.8331 16.0664 10.8331 22.4996C10.8331 28.9328 16.0664 34.166 22.4996 34.166C28.9328 34.166 34.166 28.9328 34.166 22.4996C34.166 16.0664 28.9328 10.8331 22.4996 10.8331ZM22.4996 32.4994C16.9855 32.4994 12.4998 28.0136 12.4998 22.4996C12.4998 16.9855 16.9855 12.4998 22.4996 12.4998C28.0136 12.4998 32.4994 16.9855 32.4994 22.4996C32.4994 28.0136 28.0136 32.4994 22.4996 32.4994Z" fill="white"/>
<path d="M42.6825 17.4997H41.0009C40.5718 15.9064 39.9409 14.3814 39.1176 12.9523L40.3059 11.7639C40.7434 11.3265 40.9842 10.744 40.9842 10.1256C40.9842 9.50649 40.7434 8.92484 40.3059 8.48651L36.5118 4.69241C35.6368 3.81826 34.111 3.8166 33.2344 4.69241L32.0461 5.88072C30.6161 5.05824 29.092 4.42742 27.4995 3.99826V2.31662C27.4995 1.03915 26.4603 0 25.1829 0H19.8163C18.5388 0 17.4997 1.03915 17.4997 2.31662V3.99826C15.9072 4.42742 14.3831 5.05824 12.9523 5.88156L11.7639 4.69325C10.8881 3.8166 9.36149 3.81826 8.48651 4.69325L4.69241 8.48734C4.25492 8.92484 4.01409 9.50733 4.01409 10.1265C4.01409 10.7448 4.25492 11.3265 4.69241 11.7648L5.88072 12.9531C5.05824 14.3814 4.42658 15.9064 3.99826 17.4997H2.31662C1.03915 17.4997 0 18.5388 0 19.8163V25.182C0 26.4603 1.03915 27.4995 2.31662 27.4995H3.99826C4.42742 29.092 5.05824 30.6161 5.88156 32.0469L4.69325 33.2352C4.25575 33.6727 4.01493 34.2552 4.01493 34.8735C4.01493 35.4927 4.25575 36.0743 4.69325 36.5127L8.48734 40.3068C9.36233 41.1826 10.889 41.1834 11.7648 40.3068L12.9531 39.1184C14.3839 39.9409 15.908 40.5726 17.5005 41.0017V42.6834C17.5005 43.9609 18.5397 45 19.8171 45H25.1829C26.4603 45 27.4995 43.9609 27.4995 42.6834V41.0017C29.092 40.5726 30.6161 39.9418 32.0469 39.1184L33.2352 40.3068C34.1119 41.1834 35.6368 41.1817 36.5127 40.3068L40.3068 36.5127C40.7442 36.0752 40.9851 35.4927 40.9851 34.8735C40.9851 34.2552 40.7442 33.6735 40.3068 33.2352L39.1184 32.0469C39.9409 30.6161 40.5726 29.092 41.0017 27.4995H42.6834C43.9609 27.4995 45 26.4603 45 25.1829V19.8163C44.9992 18.5388 43.96 17.4997 42.6825 17.4997ZM43.3325 25.1829C43.3325 25.5412 43.0409 25.8329 42.6825 25.8329H39.6893L39.5393 26.477C39.1051 28.3411 38.3735 30.1103 37.3618 31.7361L37.0118 32.2977L39.1276 34.4135C39.3818 34.6677 39.3818 35.0802 39.1276 35.3335L35.3335 39.1276C35.0802 39.3809 34.6677 39.3826 34.4135 39.1276L32.2977 37.0118L31.7361 37.3618C30.1111 38.3735 28.342 39.1059 26.477 39.5393L25.8329 39.6893V42.6825C25.8329 43.0409 25.5412 43.3325 25.1829 43.3325H19.8163C19.458 43.3325 19.1663 43.0409 19.1663 42.6825V39.6893L18.5222 39.5393C16.658 39.1051 14.8889 38.3735 13.2631 37.3618L12.7014 37.0118L10.5856 39.1276C10.3306 39.3826 9.91815 39.3809 9.66566 39.1276L5.87156 35.3335C5.6174 35.0794 5.6174 34.6669 5.87156 34.4135L7.98735 32.2977L7.63736 31.7361C6.62571 30.1111 5.89322 28.342 5.4599 26.477L5.3099 25.8329H2.31662C1.9583 25.8329 1.66664 25.5412 1.66664 25.1829V19.8163C1.66664 19.458 1.9583 19.1663 2.31662 19.1663H5.3099L5.4599 18.5222C5.89406 16.6572 6.62571 14.8881 7.63736 13.2631L7.98735 12.7014L5.87156 10.5856C5.6174 10.3315 5.6174 9.91898 5.87156 9.66566L9.66566 5.87156C9.91898 5.61823 10.3315 5.61656 10.5856 5.87156L12.7014 7.98735L13.2631 7.63736C14.8881 6.62571 16.6572 5.89322 18.5222 5.4599L19.1663 5.3099V2.31662C19.1663 1.9583 19.458 1.66664 19.8163 1.66664H25.182C25.5412 1.66664 25.8329 1.9583 25.8329 2.31662V5.3099L26.477 5.4599C28.3411 5.89406 30.1103 6.62571 31.7361 7.63736L32.2977 7.98735L34.4135 5.87156C34.6685 5.61656 35.081 5.61823 35.3335 5.87156L39.1276 9.66566C39.3818 9.91982 39.3818 10.3323 39.1276 10.5856L37.0118 12.7014L37.3618 13.2631C38.3735 14.8872 39.1059 16.6564 39.5393 18.5222L39.6893 19.1663H42.6825C43.0409 19.1663 43.3325 19.458 43.3325 19.8163V25.1829Z" fill="white"/>
<path d="M22.4996 14.1664C17.9046 14.1664 14.1664 17.9046 14.1664 22.4996C14.1664 27.0945 17.9046 30.8327 22.4996 30.8327C27.0945 30.8327 30.8327 27.0945 30.8327 22.4996C30.8327 17.9046 27.0945 14.1664 22.4996 14.1664ZM22.4996 29.1661C18.8238 29.1661 15.833 26.1753 15.833 22.4996C15.833 18.8238 18.8238 15.833 22.4996 15.833C26.1753 15.833 29.1661 18.8238 29.1661 22.4996C29.1661 26.1753 26.1753 29.1661 22.4996 29.1661Z" fill="white"/>
</svg>
